<svg width="420" height="420" viewBox="0 0 420 420" fill="none" xmlns="http://www.w3.org/2000/svg">
  <filter id="shadow" x="42" y="48" width="336" height="332" color-interpolation-filters="sRGB">
    <feDropShadow dx="0" dy="20" stdDeviation="18" flood-color="#5d4865" flood-opacity=".22"/>
  </filter>
  <g filter="url(#shadow)">
    <ellipse cx="210" cy="333" rx="112" ry="22" fill="#8a6fa8" opacity=".18"/>
    <path d="M109 246c-38 16-60 47-49 69 10 20 45 16 80-9 21-15 37-34 44-51l-33-35c-9 10-24 20-42 26Z" fill="#efe8ff"/>
    <path d="M311 246c38 16 60 47 49 69-10 20-45 16-80-9-21-15-37-34-44-51l33-35c9 10 24 20 42 26Z" fill="#efe8ff"/>
    <path d="M128 197c0-55 37-103 82-103s82 48 82 103v64c0 51-36 83-82 83s-82-32-82-83v-64Z" fill="#2c2944"/>
    <path d="M151 248c18 25 36 37 59 37s42-12 59-37l16 49c-16 29-43 48-75 48s-59-19-75-48l16-49Z" fill="#5e4b82"/>
    <path d="M139 158c7-57 45-90 88-80 33 8 54 39 54 81 20 10 34 32 34 57 0 47-47 85-105 85s-105-38-105-85c0-26 14-48 34-58Z" fill="#f5eee9"/>
    <path d="M112 158c9-77 63-112 113-100 41 10 68 47 69 96 12 9 21 25 23 42-38-16-58-44-68-77-25 44-78 66-137 39Z" fill="#f2f5fb"/>
    <path d="M155 129c16-50 56-78 99-61-17-22-57-33-91-11-27 17-46 51-51 101 15 6 29 7 43 3v-32Z" fill="#fff"/>
    <path d="M169 216c8 10 20 10 29 0" stroke="#806078" stroke-width="8" stroke-linecap="round"/>
    <path d="M222 216c8 10 20 10 29 0" stroke="#806078" stroke-width="8" stroke-linecap="round"/>
    <path d="M201 244c7 7 18 7 26 0" stroke="#c07a93" stroke-width="7" stroke-linecap="round"/>
    <circle cx="151" cy="238" r="12" fill="#f1b4c2" opacity=".56"/>
    <circle cx="270" cy="238" r="12" fill="#f1b4c2" opacity=".56"/>
    <path d="M96 298c29 18 67 4 91-37" stroke="#8a6fa8" stroke-width="18" stroke-linecap="round"/>
    <path d="M324 298c-29 18-67 4-91-37" stroke="#8a6fa8" stroke-width="18" stroke-linecap="round"/>
    <path d="M205 58c8-18 31-18 39 0" stroke="#d7a24f" stroke-width="8" stroke-linecap="round"/>
    <path d="M311 116l8 15 15 8-15 8-8 15-8-15-15-8 15-8 8-15Z" fill="#fff0ce"/>
    <path d="M102 106l6 11 11 6-11 6-6 11-6-11-11-6 11-6 6-11Z" fill="#fff0ce"/>
  </g>
</svg>
